<svg width="189" height="218" viewBox="0 0 189 218" fill="none" xmlns="http://www.w3.org/2000/svg">
<path d="M154.791 139.505C157.459 157.39 168.789 171.537 183.214 174.528C168.746 177.527 157.393 191.749 154.768 209.709C152.099 191.824 140.77 177.677 126.345 174.687C140.813 171.688 152.166 157.466 154.791 139.505Z" stroke="white" stroke-width="1.17509"/>
<path d="M73.4307 32.8711L73.6182 33.3789L74.1094 33.1523L104.532 19.1309L90.5117 49.5547L90.2852 50.0459L90.793 50.2334L122.221 61.832L90.793 73.4307L90.2852 73.6182L90.5117 74.1094L104.532 104.532L74.1094 90.5117L73.6182 90.2852L73.4307 90.793L61.832 122.221L50.2334 90.793L50.0459 90.2852L49.5547 90.5117L19.1309 104.532L33.1523 74.1094L33.3789 73.6182L32.8711 73.4307L1.44238 61.832L32.8711 50.2334L33.3789 50.0459L33.1523 49.5547L19.1309 19.1309L49.5547 33.1523L50.0459 33.3789L50.2334 32.8711L61.832 1.44238L73.4307 32.8711Z" fill="white" stroke="#303030"/>
</svg>
