<svg width="598" height="779" viewBox="0 0 598 779" fill="none" xmlns="http://www.w3.org/2000/svg">
<path d="M291.15 563.078L330.76 617.741L386.677 579.922L359.142 641.557L419.852 671.073L352.709 678.044L357.502 745.379L317.892 690.716L261.976 728.535L289.51 666.901L228.8 637.385L295.944 630.413L291.15 563.078Z" fill="#303030"/>
<path d="M349.632 78.936C351.232 75.3999 356.541 76.7075 356.315 80.582L348.696 211.367C348.489 214.931 352.313 217.306 355.415 215.54L469.256 150.706C472.628 148.787 476.154 152.965 473.694 155.966L390.657 257.295C388.394 260.056 390.093 264.226 393.641 264.62L523.847 279.084C527.704 279.512 528.101 284.966 524.347 285.948L397.608 319.116C394.155 320.02 393.078 324.393 395.717 326.797L492.555 415.03C495.423 417.644 492.539 422.289 488.924 420.877L366.894 373.217C363.569 371.918 360.128 374.822 360.85 378.317L387.33 506.62C388.114 510.421 383.052 512.484 380.957 509.217L310.247 398.93C308.32 395.926 303.83 396.253 302.359 399.505L248.367 518.869C246.768 522.405 241.459 521.098 241.684 517.223L249.304 386.438C249.511 382.874 245.687 380.499 242.585 382.265L128.744 447.098C125.371 449.018 121.846 444.84 124.306 441.839L207.343 340.51C209.606 337.749 207.907 333.579 204.359 333.185L74.1529 318.721C70.2956 318.293 69.8985 312.839 73.6531 311.857L200.392 278.689C203.845 277.785 204.922 273.412 202.283 271.008L105.445 182.775C102.577 180.161 105.461 175.516 109.076 176.927L231.106 224.588C234.431 225.887 237.872 222.983 237.15 219.488L210.669 91.1845C209.885 87.3839 214.948 85.3212 217.043 88.5877L287.753 198.875C289.68 201.879 294.17 201.552 295.641 198.3L349.632 78.936Z" stroke="black"/>
<path d="M471.036 345.28L471.223 345.787L471.714 345.561L522.957 321.945L499.342 373.189L499.115 373.68L499.623 373.866L552.557 393.403L499.623 412.939L499.115 413.125L499.342 413.616L522.957 464.86L471.714 441.244L471.223 441.018L471.036 441.526L451.5 494.459L431.964 441.526L431.777 441.018L431.286 441.244L380.042 464.86L403.658 413.616L403.885 413.125L403.377 412.939L350.442 393.403L403.377 373.866L403.885 373.68L403.658 373.189L380.042 321.945L431.286 345.561L431.777 345.787L431.964 345.28L451.5 292.345L471.036 345.28Z" fill="white" stroke="#303030"/>
</svg>
