<svg width="185" height="156" viewBox="0 0 185 156" fill="none" xmlns="http://www.w3.org/2000/svg">
<path d="M87.0233 21.417L111.663 55.4207L146.447 31.895L129.319 70.2356L167.085 88.5965L125.317 92.9335L128.299 134.82L103.659 100.816L68.8748 124.342L86.0029 86.0014L48.2372 67.6405L90.0051 63.3036L87.0233 21.417Z" fill="#303030"/>
<path d="M53.3631 84.0348L53.7704 84.2968L54.0457 83.8986L68.9084 62.3472L67.6593 88.4976L67.6359 88.9812L68.1185 89.0197L94.2132 91.1163L70.9427 103.109L70.512 103.33L70.7199 103.768L81.9512 127.416L59.9298 113.259L59.5225 112.997L59.2485 113.395L44.3831 134.946L45.6343 108.796L45.6576 108.313L45.175 108.274L19.0783 106.177L42.3516 94.1846L42.7809 93.963L42.573 93.5255L31.3409 69.8775L53.3631 84.0348Z" fill="white" stroke="#303030"/>
</svg>
