<svg width="24" height="24" viewBox="0 0 24 24" fill="none" xmlns="http://www.w3.org/2000/svg">
<path fill-rule="evenodd" clip-rule="evenodd" d="M7.63857 7.63857C8.79529 6.48184 10.3641 5.832 12 5.832C13.6359 5.832 15.2047 6.48184 16.3614 7.63857C17.5182 8.79529 18.168 10.3641 18.168 12C18.168 13.6359 17.5182 15.2047 16.3614 16.3614C15.2047 17.5182 13.6359 18.168 12 18.168C10.3641 18.168 8.79529 17.5182 7.63857 16.3614C6.48184 15.2047 5.832 13.6359 5.832 12C5.832 10.3641 6.48184 8.79529 7.63857 7.63857ZM10.4677 15.6992C10.9535 15.9004 11.4742 16.004 12 16.004C13.0619 16.004 14.0804 15.5822 14.8313 14.8313C15.5821 14.0804 16.004 13.0619 16.004 12C16.004 10.9381 15.5821 9.91964 14.8313 9.16875C14.0804 8.41785 13.0619 7.996 12 7.996C11.4742 7.996 10.9535 8.09957 10.4677 8.30079C9.98195 8.50201 9.54055 8.79694 9.16875 9.16875C8.79694 9.54055 8.50201 9.98195 8.30079 10.4677C8.09957 10.9535 7.996 11.4742 7.996 12C7.996 12.5258 8.09957 13.0465 8.30079 13.5323C8.50201 14.0181 8.79694 14.4595 9.16875 14.8313C9.54055 15.2031 9.98195 15.498 10.4677 15.6992Z" fill="#FFDD81"/>
<path d="M19.5354 6.75097C19.8088 6.47754 19.9624 6.10669 19.9624 5.72C19.9624 5.33332 19.8088 4.96247 19.5354 4.68904C19.2619 4.41561 18.8911 4.262 18.5044 4.262C18.1177 4.262 17.7469 4.41561 17.4734 4.68904C17.2 4.96247 17.0464 5.33332 17.0464 5.72C17.0464 6.10669 17.2 6.47754 17.4734 6.75097C17.7469 7.02439 18.1177 7.178 18.5044 7.178C18.8911 7.178 19.2619 7.02439 19.5354 6.75097Z" fill="#FFDD81"/>
<path fill-rule="evenodd" clip-rule="evenodd" d="M7.0528 0.0719999C8.3328 0.0136 8.7408 0 12 0C15.26 0 15.6672 0.0143998 16.9464 0.0719999C18.224 0.1304 19.0976 0.3344 19.8608 0.6296C20.6612 0.931087 21.3863 1.40338 21.9856 2.0136C22.596 2.61306 23.0683 3.33845 23.3696 4.1392C23.6664 4.9024 23.8696 5.7752 23.928 7.0528C23.9864 8.3328 24 8.7408 24 12C24 15.2592 23.9864 15.6672 23.928 16.9472C23.8696 18.2248 23.6664 19.0976 23.3704 19.8608C23.0689 20.6612 22.5966 21.3863 21.9864 21.9856C21.3864 22.5968 20.6608 23.0688 19.8608 23.3696C19.0976 23.6664 18.2248 23.8696 16.9472 23.928C15.6672 23.9864 15.2592 24 12 24C8.7408 24 8.3328 23.9864 7.0528 23.928C5.7752 23.8696 4.9024 23.6664 4.1392 23.3704C3.33881 23.0689 2.61372 22.5966 2.0144 21.9864C1.4032 21.3864 0.9312 20.6608 0.6304 19.8608C0.3336 19.0976 0.1304 18.2248 0.0719999 16.9472C0.0136 15.6672 0 15.26 0 12C0 8.74 0.0143998 8.3328 0.0719999 7.0536C0.1304 5.776 0.3344 4.9024 0.6296 4.1392C0.931087 3.3388 1.40338 2.61371 2.0136 2.0144C2.6136 1.4032 3.3392 0.9312 4.1392 0.6304C4.9024 0.3336 5.7752 0.1304 7.0528 0.0719999ZM16.8496 2.232C15.584 2.1744 15.204 2.1624 12 2.1624C8.796 2.1624 8.416 2.1744 7.1504 2.232C5.9808 2.2856 5.3456 2.4808 4.9224 2.6456C4.40113 2.83758 3.92955 3.14404 3.5424 3.5424C3.1232 3.9624 2.8624 4.3624 2.6456 4.9224C2.48 5.3456 2.2856 5.9808 2.232 7.1504C2.1744 8.416 2.1624 8.796 2.1624 12C2.1624 15.204 2.1744 15.584 2.232 16.8496C2.2856 18.0192 2.4808 18.6544 2.6456 19.0776C2.8377 19.5988 3.14414 20.0704 3.5424 20.4576C3.92961 20.8559 4.40116 21.1623 4.9224 21.3544C5.3456 21.52 5.9808 21.7144 7.1504 21.768C8.416 21.8256 8.7952 21.8376 12 21.8376C15.2048 21.8376 15.584 21.8256 16.8496 21.768C18.0192 21.7144 18.6544 21.5192 19.0776 21.3544C19.5989 21.1624 20.0705 20.856 20.4576 20.4576C20.8559 20.0704 21.1623 19.5988 21.3544 19.0776C21.52 18.6544 21.7144 18.0192 21.768 16.8496C21.8256 15.584 21.8376 15.204 21.8376 12C21.8376 8.796 21.8256 8.416 21.768 7.1504C21.7144 5.9808 21.5192 5.3456 21.3544 4.9224C21.1376 4.3624 20.8776 3.9624 20.4576 3.5424C20.0376 3.1232 19.6376 2.8624 19.0776 2.6456C18.6544 2.48 18.0192 2.2856 16.8496 2.232Z" fill="#FFDD81"/>
</svg>
