<svg width="22" height="22" viewBox="0 0 22 22" fill="none" xmlns="http://www.w3.org/2000/svg">
<path d="M22 1.61765V20.3824C22 20.8114 21.8296 21.2228 21.5262 21.5262C21.2228 21.8296 20.8114 22 20.3824 22H1.61765C1.18862 22 0.777166 21.8296 0.473798 21.5262C0.17043 21.2228 0 20.8114 0 20.3824L0 1.61765C0 1.18862 0.17043 0.777166 0.473798 0.473798C0.777166 0.17043 1.18862 0 1.61765 0L20.3824 0C20.8114 0 21.2228 0.17043 21.5262 0.473798C21.8296 0.777166 22 1.18862 22 1.61765ZM6.47059 8.41177H3.23529V18.7647H6.47059V8.41177ZM6.76177 4.85294C6.76347 4.60822 6.71696 4.36555 6.62488 4.13881C6.5328 3.91206 6.39696 3.70567 6.22511 3.53142C6.05327 3.35718 5.84879 3.21848 5.62334 3.12326C5.39789 3.02804 5.1559 2.97816 4.91118 2.97647H4.85294C4.35527 2.97647 3.87798 3.17417 3.52608 3.52608C3.17417 3.87798 2.97647 4.35527 2.97647 4.85294C2.97647 5.35061 3.17417 5.8279 3.52608 6.17981C3.87798 6.53171 4.35527 6.72941 4.85294 6.72941C5.09768 6.73543 5.34121 6.69317 5.56961 6.60504C5.79801 6.51691 6.00681 6.38464 6.18408 6.21579C6.36134 6.04694 6.5036 5.84481 6.60272 5.62096C6.70185 5.39711 6.75589 5.15592 6.76177 4.91118V4.85294ZM18.7647 12.4753C18.7647 9.36294 16.7847 8.15294 14.8176 8.15294C14.1736 8.12069 13.5323 8.25787 12.9578 8.55079C12.3834 8.84372 11.8957 9.28215 11.5435 9.82235H11.4529V8.41177H8.41177V18.7647H11.6471V13.2582C11.6003 12.6943 11.7779 12.1346 12.1414 11.7009C12.5049 11.2672 13.0248 10.9944 13.5882 10.9418H13.7112C14.74 10.9418 15.5035 11.5888 15.5035 13.2194V18.7647H18.7388L18.7647 12.4753Z" fill="black"/>
</svg>
