<svg width="24" height="24" viewBox="0 0 24 24" fill="none" xmlns="http://www.w3.org/2000/svg">
<path fill-rule="evenodd" clip-rule="evenodd" d="M0 11.64C0 4.95169 5.24004 0 12 0C18.76 0 24 4.95169 24 11.64C24 18.3284 18.76 23.28 12 23.28C10.7858 23.28 9.62088 23.1197 8.52636 22.8188C8.3136 22.7602 8.08735 22.7768 7.88544 22.8658L5.50361 23.9172C4.88057 24.1923 4.17727 23.7492 4.15639 23.0684L4.09104 20.9338C4.083 20.6708 3.96468 20.425 3.76867 20.2496C1.43376 18.1615 0 15.1385 0 11.64ZM8.31905 9.4516L4.79405 15.0441C4.45577 15.5808 5.11548 16.1856 5.62085 15.8021L9.40728 12.9284C9.66341 12.734 10.0174 12.733 10.2746 12.9259L13.0782 15.0287C13.9195 15.6597 15.1202 15.4381 15.681 14.5485L19.206 8.95595C19.5442 8.41924 18.8845 7.81444 18.3791 8.19796L14.5927 11.0716C14.3366 11.266 13.9826 11.267 13.7254 11.0741L10.9218 8.97136C10.0805 8.3404 8.87976 8.56192 8.31905 9.4516Z" fill="#FFDD81"/>
</svg>
